<svg id="el_UzdmX1xvr" xmlns="http://www.w3.org/2000/svg" xmlns:xlink="http://www.w3.org/1999/xlink" viewBox="0 0 150 75"><style>@-webkit-keyframes el_cvT3U8u72ba_Animation{0%{opacity: 0;}42.22%{opacity: 1;}78.89%{opacity: 0;}100%{opacity: 0;}}@keyframes el_cvT3U8u72ba_Animation{0%{opacity: 0;}42.22%{opacity: 1;}78.89%{opacity: 0;}100%{opacity: 0;}}@-webkit-keyframes el_2Ezz6ixFjIP_Animation{0%{opacity: 0;}42.22%{opacity: 1;}78.89%{opacity: 0;}100%{opacity: 0;}}@keyframes el_2Ezz6ixFjIP_Animation{0%{opacity: 0;}42.22%{opacity: 1;}78.89%{opacity: 0;}100%{opacity: 0;}}@-webkit-keyframes el_NRnOynDAMqe_Animation{0%{opacity: 0;}42.22%{opacity: 1;}78.89%{opacity: 0;}100%{opacity: 0;}}@keyframes el_NRnOynDAMqe_Animation{0%{opacity: 0;}42.22%{opacity: 1;}78.89%{opacity: 0;}100%{opacity: 0;}}@-webkit-keyframes el_ujcjYGKmlNS_Animation{0%{opacity: 0;}42.22%{opacity: 1;}78.89%{opacity: 0;}100%{opacity: 0;}}@keyframes el_ujcjYGKmlNS_Animation{0%{opacity: 0;}42.22%{opacity: 1;}78.89%{opacity: 0;}100%{opacity: 0;}}@-webkit-keyframes el_I-oQqO2cnrG_Animation{0%{opacity: 0;}42.22%{opacity: 1;}78.89%{opacity: 0;}100%{opacity: 0;}}@keyframes el_I-oQqO2cnrG_Animation{0%{opacity: 0;}42.22%{opacity: 1;}78.89%{opacity: 0;}100%{opacity: 0;}}@-webkit-keyframes el_Cmtebw8jH0q_Animation{0%{opacity: 0;}42.22%{opacity: 1;}78.89%{opacity: 0;}100%{opacity: 0;}}@keyframes el_Cmtebw8jH0q_Animation{0%{opacity: 0;}42.22%{opacity: 1;}78.89%{opacity: 0;}100%{opacity: 0;}}@-webkit-keyframes el_Ra2WfC-LSqw_Animation{0%{opacity: 0;}42.22%{opacity: 1;}78.89%{opacity: 0;}100%{opacity: 0;}}@keyframes el_Ra2WfC-LSqw_Animation{0%{opacity: 0;}42.22%{opacity: 1;}78.89%{opacity: 0;}100%{opacity: 0;}}@-webkit-keyframes el_k6DLj3Qwm3b_Animation{0%{opacity: 0;}42.22%{opacity: 1;}78.89%{opacity: 0;}100%{opacity: 0;}}@keyframes el_k6DLj3Qwm3b_Animation{0%{opacity: 0;}42.22%{opacity: 1;}78.89%{opacity: 0;}100%{opacity: 0;}}@-webkit-keyframes el_Fd39MVwsWY0_Animation{0%{opacity: 0;}42.22%{opacity: 1;}78.89%{opacity: 0;}100%{opacity: 0;}}@keyframes el_Fd39MVwsWY0_Animation{0%{opacity: 0;}42.22%{opacity: 1;}78.89%{opacity: 0;}100%{opacity: 0;}}@-webkit-keyframes el_JCPT1mnYM8M_Animation{0%{opacity: 0;}42.22%{opacity: 1;}78.89%{opacity: 0;}100%{opacity: 0;}}@keyframes el_JCPT1mnYM8M_Animation{0%{opacity: 0;}42.22%{opacity: 1;}78.89%{opacity: 0;}100%{opacity: 0;}}@-webkit-keyframes el_spSz9KZHVCa_Animation{68.89%{opacity: 0;}70%{opacity: 1;}86.67%{opacity: 1;}87.78%{opacity: 0;}0%{opacity: 0;}100%{opacity: 0;}}@keyframes el_spSz9KZHVCa_Animation{68.89%{opacity: 0;}70%{opacity: 1;}86.67%{opacity: 1;}87.78%{opacity: 0;}0%{opacity: 0;}100%{opacity: 0;}}@-webkit-keyframes el_sA5AN-o3RFq_Animation{51.11%{opacity: 0;}52.22%{opacity: 1;}70%{opacity: 1;}71.11%{opacity: 0;}0%{opacity: 0;}100%{opacity: 0;}}@keyframes el_sA5AN-o3RFq_Animation{51.11%{opacity: 0;}52.22%{opacity: 1;}70%{opacity: 1;}71.11%{opacity: 0;}0%{opacity: 0;}100%{opacity: 0;}}@-webkit-keyframes el_o9k4oSkL3X_Animation{34.44%{opacity: 0;}35.56%{opacity: 1;}52.22%{opacity: 1;}53.33%{opacity: 0;}0%{opacity: 0;}100%{opacity: 0;}}@keyframes el_o9k4oSkL3X_Animation{34.44%{opacity: 0;}35.56%{opacity: 1;}52.22%{opacity: 1;}53.33%{opacity: 0;}0%{opacity: 0;}100%{opacity: 0;}}@-webkit-keyframes el_0qKD-GnqOV_Animation{16.67%{opacity: 0;}17.78%{opacity: 1;}35.56%{opacity: 1;}36.67%{opacity: 0;}0%{opacity: 0;}100%{opacity: 0;}}@keyframes el_0qKD-GnqOV_Animation{16.67%{opacity: 0;}17.78%{opacity: 1;}35.56%{opacity: 1;}36.67%{opacity: 0;}0%{opacity: 0;}100%{opacity: 0;}}@-webkit-keyframes el__EioVABMDJ_Animation{17.78%{opacity: 1;}18.89%{opacity: 0;}86.67%{opacity: 0;}87.78%{opacity: 1;}0%{opacity: 1;}100%{opacity: 1;}}@keyframes el__EioVABMDJ_Animation{17.78%{opacity: 1;}18.89%{opacity: 0;}86.67%{opacity: 0;}87.78%{opacity: 1;}0%{opacity: 1;}100%{opacity: 1;}}#el_UzdmX1xvr *{-webkit-animation-duration: 3s;animation-duration: 3s;-webkit-animation-iteration-count: infinite;animation-iteration-count: infinite;-webkit-animation-timing-function: cubic-bezier(0, 0, 1, 1);animation-timing-function: cubic-bezier(0, 0, 1, 1);}#el_NS7lbFP_oC{fill: #231f20;}#el_U6U3O-Zb6T{-webkit-clip-path: url(#clip-path);clip-path: url(#clip-path);}#el_5Ilo2Sjp9Q{fill: #231f20;}#el_fPxn8x4WNB{fill: #231f20;}#el_anpMwgfYH4{fill: #231f20;}#el_bMBdeFj4Da{-webkit-clip-path: url(#clip-path-2);clip-path: url(#clip-path-2);}#el_erxZsLlJWq{-webkit-clip-path: url(#clip-path);clip-path: url(#clip-path);}#el_1m0FJ4aDAh{fill: #231f20;}#el_c-k7ZzQanJ{fill: #231f20;}#el_GNphySS8WX{fill: #231f20;}#el_LOb-kGLQgUf{fill: #231f20;}#el_0dLrXlD6EEF{fill: #231f20;}#el_cdJS0byM4Eh{fill: #231f20;}#el_KcZ4icMZzL4{-webkit-clip-path: url(#clip-path-4);clip-path: url(#clip-path-4);}#el_8qkEzs86x23{-webkit-clip-path: url(#clip-path-2);clip-path: url(#clip-path-2);}#el_8o7khq6_vcw{-webkit-clip-path: url(#clip-path);clip-path: url(#clip-path);}#el_iNiKEE5SuyM{fill: #231f20;}#el_1IIFqRjFN2U{fill: #231f20;}#el_8jluV1Y9yly{fill: #231f20;}#el_WEwscg4qfGI{fill: #231f20;}#el_UkzurUvk6p6{fill: #231f20;}#el_wV8_M8irLWD{fill: #231f20;}#el_WJF4kmhexeN{fill: #231f20;}#el_UjLTRi2cdEJ{fill: #231f20;}#el_LowstN-AN9s{-webkit-clip-path: url(#clip-path-7);clip-path: url(#clip-path-7);}#el_EvlhwsH9sY_{-webkit-clip-path: url(#clip-path-8);clip-path: url(#clip-path-8);}#el_KqAGzesXjxd{-webkit-clip-path: url(#clip-path-9);clip-path: url(#clip-path-9);}#el_IUhMSbEHcru{-webkit-clip-path: url(#clip-path-10);clip-path: url(#clip-path-10);}#el_gBcI3kl03kb{fill: #231f20;}#el_6sIs_TFdDfo{fill: #231f20;}#el_s2KdTLzcB9t{fill: #231f20;}#el_sRypz3NbxSc{fill: #231f20;}#el_EGnBwfaMROl{fill: #231f20;}#el_8m74glQ8iEz{fill: #231f20;}#el_Dfz8C-LVYYR{fill: #231f20;}#el_3dgO1Zq3vf5{fill: #231f20;}#el_vo5RfC81nzl{fill: #231f20;}#el_6yiLrGP8Ekk{fill: #231f20;}#el_JCPT1mnYM8M{fill: #231f20;font-size: 12px;font-family: DINPro;font-weight: 700;-webkit-transform: translate(70.54px, 39.72px);transform: translate(70.54px, 39.72px);-webkit-animation-name: el_JCPT1mnYM8M_Animation;animation-name: el_JCPT1mnYM8M_Animation;}#el_Fd39MVwsWY0{fill: #231f20;font-size: 12px;font-family: DINPro;font-weight: 700;-webkit-transform: translate(77.83px, 39.72px);transform: translate(77.83px, 39.72px);-webkit-animation-name: el_Fd39MVwsWY0_Animation;animation-name: el_Fd39MVwsWY0_Animation;}#el_k6DLj3Qwm3b{fill: #231f20;font-size: 12px;font-family: DINPro;font-weight: 700;-webkit-transform: translate(85.9px, 39.72px);transform: translate(85.9px, 39.72px);-webkit-animation-name: el_k6DLj3Qwm3b_Animation;animation-name: el_k6DLj3Qwm3b_Animation;}#el_Ra2WfC-LSqw{fill: #231f20;font-size: 12px;font-family: DINPro;font-weight: 700;-webkit-transform: translate(94.17px, 39.72px);transform: translate(94.17px, 39.72px);-webkit-animation-name: el_Ra2WfC-LSqw_Animation;animation-name: el_Ra2WfC-LSqw_Animation;}#el_Cmtebw8jH0q{fill: #231f20;font-size: 12px;font-family: DINPro;font-weight: 700;-webkit-transform: translate(102.99px, 39.72px);transform: translate(102.99px, 39.72px);-webkit-animation-name: el_Cmtebw8jH0q_Animation;animation-name: el_Cmtebw8jH0q_Animation;}#el_I-oQqO2cnrG{fill: #231f20;font-size: 12px;font-family: DINPro;font-weight: 700;-webkit-transform: translate(107.22px, 39.72px);transform: translate(107.22px, 39.72px);-webkit-animation-name: el_I-oQqO2cnrG_Animation;animation-name: el_I-oQqO2cnrG_Animation;}#el_ujcjYGKmlNS{fill: #231f20;font-size: 12px;font-family: DINPro;font-weight: 700;-webkit-transform: translate(115.92px, 39.72px);transform: translate(115.92px, 39.72px);-webkit-animation-name: el_ujcjYGKmlNS_Animation;animation-name: el_ujcjYGKmlNS_Animation;}#el_NRnOynDAMqe{fill: #231f20;font-size: 12px;font-family: DINPro;font-weight: 700;-webkit-transform: translate(124.33px, 39.72px);transform: translate(124.33px, 39.72px);-webkit-animation-name: el_NRnOynDAMqe_Animation;animation-name: el_NRnOynDAMqe_Animation;}#el_2Ezz6ixFjIP{fill: #231f20;font-size: 12px;font-family: DINPro;font-weight: 700;-webkit-transform: translate(128.4px, 39.72px);transform: translate(128.4px, 39.72px);-webkit-animation-name: el_2Ezz6ixFjIP_Animation;animation-name: el_2Ezz6ixFjIP_Animation;}#el_cvT3U8u72ba{fill: #231f20;font-size: 12px;font-family: DINPro;font-weight: 700;-webkit-transform: translate(132.37px, 39.72px);transform: translate(132.37px, 39.72px);-webkit-animation-name: el_cvT3U8u72ba_Animation;animation-name: el_cvT3U8u72ba_Animation;}#el__EioVABMDJ{-webkit-animation-name: el__EioVABMDJ_Animation;animation-name: el__EioVABMDJ_Animation;}#el_0qKD-GnqOV{-webkit-animation-name: el_0qKD-GnqOV_Animation;animation-name: el_0qKD-GnqOV_Animation;}#el_o9k4oSkL3X{-webkit-animation-name: el_o9k4oSkL3X_Animation;animation-name: el_o9k4oSkL3X_Animation;}#el_sA5AN-o3RFq{-webkit-animation-name: el_sA5AN-o3RFq_Animation;animation-name: el_sA5AN-o3RFq_Animation;}#el_spSz9KZHVCa{-webkit-animation-name: el_spSz9KZHVCa_Animation;animation-name: el_spSz9KZHVCa_Animation;}</style><defs><clipPath id="clip-path"><path id="mask1" class="cls-1" d="M57.59,32.78c0,3.38-1.54,7.29-3,10.12,0,0-14.49,23.28-18.82,23.28S17,42.9,17,42.9c-1.41-2.83-3-6.74-3-10.12C14,21.16,24.18,11,35.81,11h0.63a9.93,9.93,0,0,0,4.38,2.22,8.74,8.74,0,0,0,4.38,0C52.4,16.92,57.59,24.47,57.59,32.78Z"/></clipPath><clipPath id="clip-path-2"><path id="mask2" class="cls-1" d="M57.59,32.78c0,3.38-1.54,7.29-3,10.12,0,0-14.49,23.28-18.82,23.28S17,42.9,17,42.9c-1.41-2.83-3-6.74-3-10.12C14,21.16,24.18,11,35.81,11h0.63a9.81,9.81,0,0,0,4.27,2.19,8.78,8.78,0,0,0,4,7.32,8.66,8.66,0,0,0,9.4.76A21.16,21.16,0,0,1,57.59,32.78Z"/></clipPath><clipPath id="clip-path-4"><path id="mask3" class="cls-1" d="M57.59,32.78c0,3.38-1.54,7.29-3,10.12,0,0-14.49,23.28-18.82,23.28S17,42.9,17,42.9c-1.41-2.83-3-6.74-3-10.12C14,21.16,24.18,11,35.81,11h0.63a9.81,9.81,0,0,0,4.27,2.19,8.71,8.71,0,0,0,3.8,7.18,9.15,9.15,0,0,0,2.21,6.13c2.74,3.48,6.5,4,10.57,2.82A20.31,20.31,0,0,1,57.59,32.78Z"/></clipPath><clipPath id="clip-path-7"><path id="mask4" class="cls-1" d="M57.58,33c-0.07,3.32-1.57,7.11-2.95,9.87,0,0-14.49,23.28-18.82,23.28S17,42.82,17,42.82C15.57,40,14,36.08,14,32.7c0-11.62,10.15-21.78,21.79-21.78h0.63a9.81,9.81,0,0,0,4.27,2.19,8.71,8.71,0,0,0,3.8,7.18,9.15,9.15,0,0,0,2.21,6.13,8.49,8.49,0,0,0,8.06,3.33A8.08,8.08,0,0,0,57.58,33Z"/></clipPath><clipPath id="clip-path-8"><path id="mask3-2" data-name="mask3" class="cls-1" d="M57.59,32.7c0,3.38-1.54,7.29-3,10.12,0,0-14.49,23.28-18.82,23.28S17,42.82,17,42.82C15.57,40,14,36.08,14,32.7c0-11.62,10.15-21.78,21.79-21.78h0.63a9.81,9.81,0,0,0,4.27,2.19,8.71,8.71,0,0,0,3.8,7.18,9.15,9.15,0,0,0,2.21,6.13c2.74,3.48,6.5,4,10.57,2.82A20.31,20.31,0,0,1,57.59,32.7Z"/></clipPath><clipPath id="clip-path-9"><path id="mask2-3" data-name="mask2" class="cls-1" d="M57.59,32.7c0,3.38-1.54,7.29-3,10.12,0,0-14.49,23.28-18.82,23.28S17,42.82,17,42.82C15.57,40,14,36.08,14,32.7c0-11.62,10.15-21.78,21.79-21.78h0.63a9.81,9.81,0,0,0,4.27,2.19,8.78,8.78,0,0,0,4,7.32,8.66,8.66,0,0,0,9.4.76A21.16,21.16,0,0,1,57.59,32.7Z"/></clipPath><clipPath id="clip-path-10"><path id="mask1-4" data-name="mask1" class="cls-1" d="M57.59,32.7c0,3.38-1.54,7.29-3,10.12,0,0-14.49,23.28-18.82,23.28S17,42.82,17,42.82C15.57,40,14,36.08,14,32.7c0-11.62,10.15-21.78,21.79-21.78h0.63a9.93,9.93,0,0,0,4.38,2.22,8.74,8.74,0,0,0,4.38,0C52.41,16.84,57.59,24.39,57.59,32.7Z"/></clipPath></defs><title>loading</title><g id="el__EioVABMDJ"><path d="M14,32.78C14,21.16,24.18,11,35.81,11S57.59,21.16,57.59,32.78c0,3.38-1.54,7.29-3,10.12,0,0-14.49,23.28-18.83,23.28S17,42.9,17,42.9C15.56,40.07,14,36.16,14,32.78ZM45.09,32a9.28,9.28,0,1,0-9.28,9.28A9.28,9.28,0,0,0,45.09,32Z" id="el_NS7lbFP_oC"/></g><g id="el_0qKD-GnqOV"><g id="el_U6U3O-Zb6T"><path d="M45.09,32a9.28,9.28,0,1,0-9.28,9.28A9.28,9.28,0,0,0,45.09,32ZM35.81,11c11.63,0,21.78,10.15,21.78,21.78,0,3.38-1.54,7.29-3,10.12,0,0-14.49,23.28-18.83,23.28S17,42.9,17,42.9c-1.42-2.83-3-6.74-3-10.12C14,21.16,24.18,11,35.81,11Z" id="el_5Ilo2Sjp9Q"/></g><g id="el_le4dwu4Q_4"><path d="M38.54,6.71a0.8,0.8,0,0,0,.68.51,1,1,0,0,0,.36-0.08,1.34,1.34,0,0,0,.73-0.59,0.75,0.75,0,0,0-.11-0.88,1,1,0,0,0-.29-0.17,2.66,2.66,0,0,0-1-.2C38.31,5.32,38.39,6.35,38.54,6.71Z" id="el_fPxn8x4WNB"/><path d="M46.69,10.06a1.13,1.13,0,0,0-.13.61,1.58,1.58,0,0,0,.16.36,0.24,0.24,0,0,0,.11.05,1.69,1.69,0,0,0,.53.09,0.57,0.57,0,0,0,.46-0.23,0.67,0.67,0,0,0,0-.63,0.88,0.88,0,0,0-.46-0.49A0.61,0.61,0,0,0,46.69,10.06Z" id="el_anpMwgfYH4"/></g></g><g id="el_o9k4oSkL3X"><g id="el_bMBdeFj4Da"><g id="el_erxZsLlJWq"><path d="M57.59,32.78c0,3.38-1.54,7.29-3,10.12,0,0-14.49,23.28-18.83,23.28S17,42.9,17,42.9c-1.42-2.83-3-6.74-3-10.12C14,21.16,24.18,11,35.81,11S57.59,21.16,57.59,32.78ZM45.09,32a9.28,9.28,0,1,0-9.28,9.28A9.28,9.28,0,0,0,45.09,32Z" id="el_1m0FJ4aDAh"/></g></g><g id="el_MnsoDYDIwf"><path d="M49,7.5a0.85,0.85,0,0,0-.08.33,0.5,0.5,0,0,0,.41.46A0.75,0.75,0,0,0,50.15,8a1.13,1.13,0,0,0,.1-0.57,0.63,0.63,0,0,0-.33-0.68,0.49,0.49,0,0,0-.27,0A1.9,1.9,0,0,0,49,7.5Z" id="el_c-k7ZzQanJ"/><path d="M50.86,10.47a0.8,0.8,0,0,0,0,.85,1,1,0,0,0,.27.26,1.34,1.34,0,0,0,.89.28,0.75,0.75,0,0,0,.67-0.58,1,1,0,0,0,0-.33,2.66,2.66,0,0,0-.42-1C51.88,9.5,51.07,10.15,50.86,10.47Z" id="el_GNphySS8WX"/><path d="M45.3,15.77a0.87,0.87,0,0,0,.76.42,0.17,0.17,0,0,0,.13,0,0.16,0.16,0,0,0,0-.12,0.7,0.7,0,0,0-.51-0.65,0.42,0.42,0,0,0-.36.05A0.34,0.34,0,0,0,45.3,15.77Z" id="el_LOb-kGLQgUf"/></g><g id="el_DPP-J5GriG0" data-name="crumb_1"><path d="M38.54,6.71a0.8,0.8,0,0,0,.68.51,1,1,0,0,0,.36-0.08,1.34,1.34,0,0,0,.73-0.59,0.75,0.75,0,0,0-.11-0.88,1,1,0,0,0-.29-0.17,2.66,2.66,0,0,0-1-.2C38.31,5.32,38.39,6.35,38.54,6.71Z" id="el_0dLrXlD6EEF"/><path d="M46.69,10.06a1.13,1.13,0,0,0-.13.61,1.58,1.58,0,0,0,.16.36,0.24,0.24,0,0,0,.11.05,1.69,1.69,0,0,0,.53.09,0.57,0.57,0,0,0,.46-0.23,0.67,0.67,0,0,0,0-.63,0.88,0.88,0,0,0-.46-0.49A0.61,0.61,0,0,0,46.69,10.06Z" id="el_cdJS0byM4Eh"/></g></g><g id="el_sA5AN-o3RFq"><g id="el_KcZ4icMZzL4"><g id="el_8qkEzs86x23"><g id="el_8o7khq6_vcw"><path d="M45.09,32a9.28,9.28,0,1,0-9.28,9.28A9.28,9.28,0,0,0,45.09,32ZM35.81,11c11.63,0,21.78,10.15,21.78,21.78,0,3.38-1.54,7.29-3,10.12,0,0-14.49,23.28-18.83,23.28S17,42.9,17,42.9c-1.42-2.83-3-6.74-3-10.12C14,21.16,24.18,11,35.81,11Z" id="el_iNiKEE5SuyM"/></g></g></g><g id="el_UJarEvOeMCc"><path d="M56,19.56a0.85,0.85,0,0,0-.31.12,0.5,0.5,0,0,0-.15.6,0.75,0.75,0,0,0,.71.56,1.13,1.13,0,0,0,.53-0.24,0.63,0.63,0,0,0,.38-0.65,0.49,0.49,0,0,0-.19-0.2A1.9,1.9,0,0,0,56,19.56Z" id="el_1IIFqRjFN2U"/><path d="M52.62,19.1a1.13,1.13,0,0,0-.57.23,1.58,1.58,0,0,0-.21.34,0.24,0.24,0,0,0,0,.12,1.69,1.69,0,0,0,.22.49,0.57,0.57,0,0,0,.45.26A0.67,0.67,0,0,0,53,20.18a0.88,0.88,0,0,0,.15-0.65A0.61,0.61,0,0,0,52.62,19.1Z" id="el_8jluV1Y9yly"/></g><g id="el_I2ilhXqoi6e" data-name="crumb_2"><path d="M49,7.5a0.85,0.85,0,0,0-.08.33,0.5,0.5,0,0,0,.41.46A0.75,0.75,0,0,0,50.15,8a1.13,1.13,0,0,0,.1-0.57,0.63,0.63,0,0,0-.33-0.68,0.49,0.49,0,0,0-.27,0A1.9,1.9,0,0,0,49,7.5Z" id="el_WEwscg4qfGI"/><path d="M50.86,10.47a0.8,0.8,0,0,0,0,.85,1,1,0,0,0,.27.26,1.34,1.34,0,0,0,.89.28,0.75,0.75,0,0,0,.67-0.58,1,1,0,0,0,0-.33,2.66,2.66,0,0,0-.42-1C51.88,9.5,51.07,10.15,50.86,10.47Z" id="el_UkzurUvk6p6"/><path d="M45.31,15.77a0.87,0.87,0,0,0,.76.42,0.17,0.17,0,0,0,.13,0,0.16,0.16,0,0,0,0-.12,0.7,0.7,0,0,0-.51-0.65,0.42,0.42,0,0,0-.36.05A0.34,0.34,0,0,0,45.31,15.77Z" id="el_wV8_M8irLWD"/></g><g id="el_hPCtKIFN--8" data-name="crumb_1"><path d="M38.55,6.71a0.8,0.8,0,0,0,.68.51,1,1,0,0,0,.36-0.08,1.34,1.34,0,0,0,.73-0.59,0.75,0.75,0,0,0-.11-0.88,1,1,0,0,0-.29-0.17,2.66,2.66,0,0,0-1-.2C38.31,5.32,38.39,6.36,38.55,6.71Z" id="el_WJF4kmhexeN"/><path d="M46.69,10.06a1.13,1.13,0,0,0-.13.61,1.58,1.58,0,0,0,.16.36,0.24,0.24,0,0,0,.11.05,1.69,1.69,0,0,0,.53.09,0.57,0.57,0,0,0,.46-0.23,0.67,0.67,0,0,0,0-.63,0.88,0.88,0,0,0-.46-0.49A0.61,0.61,0,0,0,46.69,10.06Z" id="el_UjLTRi2cdEJ"/></g></g><g id="el_spSz9KZHVCa"><g id="el_LowstN-AN9s"><g id="el_EvlhwsH9sY_"><g id="el_KqAGzesXjxd"><g id="el_IUhMSbEHcru"><path d="M14,32.7c0-11.63,10.15-21.78,21.78-21.78S57.59,21.08,57.59,32.7c0,3.38-1.54,7.29-3,10.12,0,0-14.49,23.28-18.83,23.28S17,42.82,17,42.82C15.57,40,14,36.08,14,32.7Zm31.07-.78a9.28,9.28,0,1,0-9.28,9.28A9.28,9.28,0,0,0,45.1,31.93Z" id="el_gBcI3kl03kb"/></g></g></g></g><g id="el_LGrStkyNOQV"><path d="M60.24,28.19a0.85,0.85,0,0,0,.27-0.2,0.5,0.5,0,0,0,0-.62A0.75,0.75,0,0,0,59.66,27a1.13,1.13,0,0,0-.44.37,0.63,0.63,0,0,0-.19.73,0.49,0.49,0,0,0,.23.15A1.9,1.9,0,0,0,60.24,28.19Z" id="el_6sIs_TFdDfo"/><path d="M55.61,25a0.87,0.87,0,0,0-.53.69,0.17,0.17,0,0,0,0,.13,0.16,0.16,0,0,0,.11.06,0.7,0.7,0,0,0,.73-0.4,0.42,0.42,0,0,0,0-.37A0.34,0.34,0,0,0,55.61,25Z" id="el_s2KdTLzcB9t"/></g><g id="el_ljURUI0SpFl" data-name="crumb_3"><path d="M56,19.48a0.85,0.85,0,0,0-.31.12,0.5,0.5,0,0,0-.15.6,0.75,0.75,0,0,0,.71.56,1.13,1.13,0,0,0,.53-0.24,0.63,0.63,0,0,0,.38-0.65,0.49,0.49,0,0,0-.19-0.2A1.9,1.9,0,0,0,56,19.48Z" id="el_sRypz3NbxSc"/><path d="M52.63,19a1.13,1.13,0,0,0-.57.23,1.58,1.58,0,0,0-.21.34,0.24,0.24,0,0,0,0,.12,1.69,1.69,0,0,0,.22.49,0.57,0.57,0,0,0,.45.26A0.67,0.67,0,0,0,53,20.1a0.88,0.88,0,0,0,.15-0.65A0.61,0.61,0,0,0,52.63,19Z" id="el_EGnBwfaMROl"/></g><g id="el_4R3mp2RBQO1" data-name="crumb_2"><path d="M49,7.42a0.85,0.85,0,0,0-.08.33,0.5,0.5,0,0,0,.41.46,0.75,0.75,0,0,0,.86-0.28,1.13,1.13,0,0,0,.1-0.57,0.63,0.63,0,0,0-.33-0.68,0.49,0.49,0,0,0-.27,0A1.9,1.9,0,0,0,49,7.42Z" id="el_8m74glQ8iEz"/><path d="M50.87,10.4a0.8,0.8,0,0,0,0,.85,1,1,0,0,0,.27.26,1.34,1.34,0,0,0,.89.28,0.75,0.75,0,0,0,.67-0.58,1,1,0,0,0,0-.33,2.66,2.66,0,0,0-.42-1C51.88,9.42,51.08,10.07,50.87,10.4Z" id="el_Dfz8C-LVYYR"/><path d="M45.31,15.69a0.87,0.87,0,0,0,.76.42,0.17,0.17,0,0,0,.13,0,0.16,0.16,0,0,0,0-.12,0.7,0.7,0,0,0-.51-0.65,0.42,0.42,0,0,0-.36.05A0.34,0.34,0,0,0,45.31,15.69Z" id="el_3dgO1Zq3vf5"/></g><g id="el_7wNIBQBlf2b" data-name="crumb_1"><path d="M38.55,6.63a0.8,0.8,0,0,0,.68.51,1,1,0,0,0,.36-0.08,1.34,1.34,0,0,0,.73-0.59A0.75,0.75,0,0,0,40.2,5.6a1,1,0,0,0-.29-0.17,2.66,2.66,0,0,0-1-.2C38.31,5.25,38.4,6.28,38.55,6.63Z" id="el_vo5RfC81nzl"/><path d="M46.69,10a1.13,1.13,0,0,0-.13.61,1.58,1.58,0,0,0,.16.36,0.24,0.24,0,0,0,.11.05,1.69,1.69,0,0,0,.53.09,0.57,0.57,0,0,0,.46-0.23,0.67,0.67,0,0,0,0-.63,0.88,0.88,0,0,0-.46-0.49A0.61,0.61,0,0,0,46.69,10Z" id="el_6yiLrGP8Ekk"/></g></g><text id="el_JCPT1mnYM8M">L</text><text id="el_Fd39MVwsWY0">O</text><text id="el_k6DLj3Qwm3b">A</text><text id="el_Ra2WfC-LSqw">D</text><text id="el_Cmtebw8jH0q">I</text><text id="el_I-oQqO2cnrG">N</text><text id="el_ujcjYGKmlNS">G</text><text id="el_NRnOynDAMqe">.</text><text id="el_2Ezz6ixFjIP">.</text><text id="el_cvT3U8u72ba">.</text><script>(function(){var a=document.querySelector('#el_UzdmX1xvr'),b=a.querySelectorAll('style'),c=function(d){b.forEach(function(f){var g=f.textContent;g&amp;&amp;(f.textContent=g.replace(/transform-box:[^;\r\n]*/gi,'transform-box: '+d))})};c('initial'),window.requestAnimationFrame(function(){return c('fill-box')})})();</script></svg>