<svg id="el_pJsxIMuAu" xmlns="http://www.w3.org/2000/svg" xmlns:xlink="http://www.w3.org/1999/xlink" viewBox="0 0 300 220"><style>@-webkit-keyframes el_UZq4jf_Q87i_Animation{81.11%{opacity: 0;}82.22%{opacity: 1;}0%{opacity: 0;}100%{opacity: 1;}}@keyframes el_UZq4jf_Q87i_Animation{81.11%{opacity: 0;}82.22%{opacity: 1;}0%{opacity: 0;}100%{opacity: 1;}}@-webkit-keyframes el_I2emV51B-qi_Animation{61.11%{opacity: 0;}62.22%{opacity: 1;}82.22%{opacity: 1;}83.33%{opacity: 0;}0%{opacity: 0;}100%{opacity: 0;}}@keyframes el_I2emV51B-qi_Animation{61.11%{opacity: 0;}62.22%{opacity: 1;}82.22%{opacity: 1;}83.33%{opacity: 0;}0%{opacity: 0;}100%{opacity: 0;}}@-webkit-keyframes el_D3Zl5jOWz2_Animation{38.89%{opacity: 0;}40%{opacity: 1;}62.22%{opacity: 1;}63.33%{opacity: 0;}0%{opacity: 0;}100%{opacity: 0;}}@keyframes el_D3Zl5jOWz2_Animation{38.89%{opacity: 0;}40%{opacity: 1;}62.22%{opacity: 1;}63.33%{opacity: 0;}0%{opacity: 0;}100%{opacity: 0;}}@-webkit-keyframes el_z56DLkdACa_Animation{17.78%{opacity: 0;}18.89%{opacity: 1;}40%{opacity: 1;}41.11%{opacity: 0;}0%{opacity: 0;}100%{opacity: 0;}}@keyframes el_z56DLkdACa_Animation{17.78%{opacity: 0;}18.89%{opacity: 1;}40%{opacity: 1;}41.11%{opacity: 0;}0%{opacity: 0;}100%{opacity: 0;}}@-webkit-keyframes el_hrv4ahrmwE_Animation{0%{opacity: 1;}18.89%{opacity: 1;}20%{opacity: 0;}100%{opacity: 0;}}@keyframes el_hrv4ahrmwE_Animation{0%{opacity: 1;}18.89%{opacity: 1;}20%{opacity: 0;}100%{opacity: 0;}}#el_pJsxIMuAu *{-webkit-animation-duration: 3s;animation-duration: 3s;-webkit-animation-iteration-count: infinite;animation-iteration-count: infinite;-webkit-animation-timing-function: cubic-bezier(0, 0, 1, 1);animation-timing-function: cubic-bezier(0, 0, 1, 1);}#el_4uCIjLmBHR{fill: #231f20;}#el_Xqg2ikCvqj{-webkit-clip-path: url(#clip-path);clip-path: url(#clip-path);}#el_IXz-kwD2xw{fill: #231f20;}#el_0t3bbTHmY4{fill: #231f20;}#el_UmwQ-fR5ly{fill: #231f20;}#el_SBokP0Bc4t{-webkit-clip-path: url(#clip-path-2);clip-path: url(#clip-path-2);}#el_VNMKYQWUn0{-webkit-clip-path: url(#clip-path);clip-path: url(#clip-path);}#el_lg-A7iMQAH{fill: #231f20;}#el_Zcg4uuL0sR{fill: #231f20;}#el_6LNkz86UKD{fill: #231f20;}#el_MCgLiYAsa2g{fill: #231f20;}#el_Bz7YIUbM2p6{fill: #231f20;}#el_0vbvT8XtKkM{fill: #231f20;}#el_mhtH11_bUeM{-webkit-clip-path: url(#clip-path-4);clip-path: url(#clip-path-4);}#el_La-ums2yA_M{-webkit-clip-path: url(#clip-path-2);clip-path: url(#clip-path-2);}#el_ajH0gi2hfa8{-webkit-clip-path: url(#clip-path);clip-path: url(#clip-path);}#el_4xXQJoXXk_P{fill: #231f20;}#el_ZUqeXEpioDX{fill: #231f20;}#el_H9KzlxocfTG{fill: #231f20;}#el_8uixPOt3gTe{fill: #231f20;}#el_JyQXpQD0N-K{fill: #231f20;}#el_TydcJ009xAC{fill: #231f20;}#el_eKmim50s7bw{fill: #231f20;}#el_HRzYipTn4jf{fill: #231f20;}#el_jlB-Zqt2AbD{-webkit-clip-path: url(#clip-path-7);clip-path: url(#clip-path-7);}#el_kLkJtoGo24D{-webkit-clip-path: url(#clip-path-4);clip-path: url(#clip-path-4);}#el_kI_6qBGSa-x{-webkit-clip-path: url(#clip-path-2);clip-path: url(#clip-path-2);}#el_1D9nWNgqTnv{-webkit-clip-path: url(#clip-path);clip-path: url(#clip-path);}#el_1E_v2vOJE2b{fill: #231f20;}#el_EaaIk24pxh4{fill: #231f20;}#el_Bw9Q__wfAEC{fill: #231f20;}#el_ylc0ynaDU8G{fill: #231f20;}#el_zZvQmTQ0R5Z{fill: #231f20;}#el_yCUqgoBdJu7{fill: #231f20;}#el_IocU9DuqfK3{fill: #231f20;}#el_s8JmqaiRnJB{fill: #231f20;}#el_AgI0Ec4oFsu{fill: #231f20;}#el_AzX5O8PV1Rd{fill: #231f20;}#el_hrv4ahrmwE{-webkit-animation-name: el_hrv4ahrmwE_Animation;animation-name: el_hrv4ahrmwE_Animation;opacity: 1;}#el_z56DLkdACa{-webkit-animation-name: el_z56DLkdACa_Animation;animation-name: el_z56DLkdACa_Animation;opacity: 0;}#el_D3Zl5jOWz2{-webkit-animation-name: el_D3Zl5jOWz2_Animation;animation-name: el_D3Zl5jOWz2_Animation;opacity: 0;}#el_I2emV51B-qi{-webkit-animation-name: el_I2emV51B-qi_Animation;animation-name: el_I2emV51B-qi_Animation;opacity: 0;}#el_UZq4jf_Q87i{-webkit-animation-name: el_UZq4jf_Q87i_Animation;animation-name: el_UZq4jf_Q87i_Animation;opacity: 0;}</style><defs><clipPath id="clip-path"><path id="mask1" class="cls-1" d="M201.53,97.2c0,6.76-3.08,14.57-5.91,20.23,0,0-29,46.57-37.65,46.57s-37.66-46.57-37.66-46.57c-2.82-5.66-5.91-13.47-5.91-20.23C114.4,74,134.71,53.64,158,53.64l1.26,0A19.86,19.86,0,0,0,168,58.1a17.47,17.47,0,0,0,8.76.09C191.16,65.47,201.53,80.58,201.53,97.2Z"/></clipPath><clipPath id="clip-path-2"><path id="mask2" class="cls-1" d="M201.53,97.2c0,6.76-3.08,14.57-5.91,20.23,0,0-29,46.57-37.65,46.57s-37.66-46.57-37.66-46.57c-2.82-5.66-5.91-13.47-5.91-20.23C114.4,74,134.71,53.64,158,53.64l1.26,0A19.62,19.62,0,0,0,167.77,58c0,5.44,2.28,10.43,8,14.63,6.13,4.54,12.56,4.45,18.81,1.52A42.32,42.32,0,0,1,201.53,97.2Z"/></clipPath><clipPath id="clip-path-4"><path id="mask3" class="cls-1" d="M201.53,97.2c0,6.76-3.08,14.57-5.91,20.23,0,0-29,46.57-37.65,46.57s-37.66-46.57-37.66-46.57c-2.82-5.66-5.91-13.47-5.91-20.23C114.4,74,134.71,53.64,158,53.64l1.26,0A19.62,19.62,0,0,0,167.77,58c0,5.33,2.19,10.22,7.61,14.36-0.16,4,1.14,8.08,4.42,12.25,5.49,7,13,8,21.13,5.64A40.62,40.62,0,0,1,201.53,97.2Z"/></clipPath><clipPath id="clip-path-7"><path id="mask4" class="cls-1" d="M201.51,97.7c-0.13,6.64-3.13,14.21-5.89,19.73,0,0-29,46.57-37.65,46.57s-37.66-46.57-37.66-46.57c-2.82-5.66-5.91-13.47-5.91-20.23C114.4,74,134.71,53.64,158,53.64l1.26,0A19.62,19.62,0,0,0,167.77,58c0,5.33,2.19,10.22,7.61,14.36-0.16,4,1.14,8.08,4.42,12.25,4.34,5.51,9.94,7.32,16.11,6.65A16.15,16.15,0,0,0,201.51,97.7Z"/></clipPath></defs><title>frames</title><g id="el_hrv4ahrmwE"><path d="M201.53,97.21c0,6.75-3.08,14.56-5.9,20.22,0,0-29,46.58-37.66,46.58s-37.66-46.58-37.66-46.58c-2.82-5.66-5.9-13.47-5.9-20.22,0-23.26,20.31-43.57,43.56-43.57S201.53,73.94,201.53,97.21Zm-25-1.56A18.56,18.56,0,1,0,158,114.21,18.56,18.56,0,0,0,176.54,95.64Z" id="el_4uCIjLmBHR"/></g><g id="el_z56DLkdACa"><g id="el_Xqg2ikCvqj"><path d="M201.53,97.21c0,6.75-3.08,14.56-5.9,20.22,0,0-29,46.58-37.66,46.58s-37.66-46.58-37.66-46.58c-2.82-5.66-5.9-13.47-5.9-20.22,0-23.26,20.31-43.57,43.56-43.57S201.53,73.94,201.53,97.21Zm-25-1.56A18.56,18.56,0,1,0,158,114.21,18.56,18.56,0,0,0,176.54,95.64Z" id="el_IXz-kwD2xw"/></g><g id="el_NhDRX4tieR"><path d="M163.44,45.06a1.6,1.6,0,0,0,1.36,1,1.93,1.93,0,0,0,.72-0.16A2.67,2.67,0,0,0,167,44.76a1.49,1.49,0,0,0-.22-1.76,1.94,1.94,0,0,0-.57-0.33,5.31,5.31,0,0,0-2.1-.4C163,42.28,163.14,44.35,163.44,45.06Z" id="el_0t3bbTHmY4"/><path d="M179.73,51.76a2.25,2.25,0,0,0-.25,1.21,3.17,3.17,0,0,0,.33.72,0.47,0.47,0,0,0,.22.11,3.39,3.39,0,0,0,1.06.19,1.15,1.15,0,0,0,.93-0.46,1.35,1.35,0,0,0,0-1.26,1.76,1.76,0,0,0-.91-1A1.21,1.21,0,0,0,179.73,51.76Z" id="el_UmwQ-fR5ly"/></g></g><g id="el_D3Zl5jOWz2"><g id="el_SBokP0Bc4t"><g id="el_VNMKYQWUn0"><path d="M201.53,97.21c0,6.75-3.08,14.56-5.9,20.22,0,0-29,46.58-37.66,46.58s-37.66-46.58-37.66-46.58c-2.82-5.66-5.9-13.47-5.9-20.22,0-23.26,20.31-43.57,43.56-43.57S201.53,73.94,201.53,97.21Zm-25-1.56A18.56,18.56,0,1,0,158,114.21,18.56,18.56,0,0,0,176.54,95.64Z" id="el_lg-A7iMQAH"/></g></g><g id="el_0svJ1kVdrO"><path d="M184.27,46.63a1.7,1.7,0,0,0-.16.65,1,1,0,0,0,.82.92,1.51,1.51,0,0,0,1.73-.56,2.26,2.26,0,0,0,.2-1.14,1.25,1.25,0,0,0-.66-1.36,1,1,0,0,0-.54.08A3.81,3.81,0,0,0,184.27,46.63Z" id="el_Zcg4uuL0sR"/><path d="M188.07,52.59a1.6,1.6,0,0,0-.09,1.7,1.93,1.93,0,0,0,.53.51,2.67,2.67,0,0,0,1.78.55,1.49,1.49,0,0,0,1.34-1.16,1.94,1.94,0,0,0,0-.66,5.31,5.31,0,0,0-.84-2C190.11,50.64,188.5,51.94,188.07,52.59Z" id="el_6LNkz86UKD"/><path d="M177,63.18a1.74,1.74,0,0,0,1.52.83,0.34,0.34,0,0,0,.26-0.06,0.32,0.32,0,0,0,.07-0.24,1.41,1.41,0,0,0-1-1.31,0.85,0.85,0,0,0-.73.1A0.69,0.69,0,0,0,177,63.18Z" id="el_MCgLiYAsa2g"/></g><g id="el_TLzPdvP8k5o" data-name="crumb_1"><path d="M163.44,45.06a1.6,1.6,0,0,0,1.36,1,1.93,1.93,0,0,0,.72-0.16A2.67,2.67,0,0,0,167,44.76a1.49,1.49,0,0,0-.22-1.76,1.94,1.94,0,0,0-.57-0.33,5.31,5.31,0,0,0-2.1-.4C163,42.28,163.14,44.35,163.44,45.06Z" id="el_Bz7YIUbM2p6"/><path d="M179.73,51.76a2.25,2.25,0,0,0-.25,1.21,3.17,3.17,0,0,0,.33.72,0.47,0.47,0,0,0,.22.11,3.39,3.39,0,0,0,1.06.19,1.15,1.15,0,0,0,.93-0.46,1.35,1.35,0,0,0,0-1.26,1.76,1.76,0,0,0-.91-1A1.21,1.21,0,0,0,179.73,51.76Z" id="el_0vbvT8XtKkM"/></g></g><g id="el_I2emV51B-qi"><g id="el_mhtH11_bUeM"><g id="el_La-ums2yA_M"><g id="el_ajH0gi2hfa8"><path d="M201.53,97.21c0,6.75-3.08,14.56-5.9,20.22,0,0-29,46.58-37.66,46.58s-37.66-46.58-37.66-46.58c-2.82-5.66-5.9-13.47-5.9-20.22,0-23.26,20.31-43.57,43.56-43.57S201.53,73.94,201.53,97.21Zm-25-1.56A18.56,18.56,0,1,0,158,114.21,18.56,18.56,0,0,0,176.54,95.64Z" id="el_4xXQJoXXk_P"/></g></g></g><g id="el_7I6hvTff8F4"><path d="M198.38,70.75a1.7,1.7,0,0,0-.63.23,1,1,0,0,0-.31,1.19,1.51,1.51,0,0,0,1.43,1.12,2.26,2.26,0,0,0,1.06-.47,1.25,1.25,0,0,0,.76-1.3,1,1,0,0,0-.37-0.41A3.81,3.81,0,0,0,198.38,70.75Z" id="el_ZUqeXEpioDX"/><path d="M191.6,69.84a2.25,2.25,0,0,0-1.15.47A3.17,3.17,0,0,0,190,71a0.47,0.47,0,0,0,0,.24,3.39,3.39,0,0,0,.43,1,1.15,1.15,0,0,0,.9.51,1.35,1.35,0,0,0,1-.71,1.76,1.76,0,0,0,.3-1.3A1.21,1.21,0,0,0,191.6,69.84Z" id="el_H9KzlxocfTG"/></g><g id="el_6ryvYOx7LRo" data-name="crumb_2"><path d="M184.27,46.63a1.7,1.7,0,0,0-.16.65,1,1,0,0,0,.82.92,1.51,1.51,0,0,0,1.73-.56,2.26,2.26,0,0,0,.2-1.14,1.25,1.25,0,0,0-.66-1.36,1,1,0,0,0-.54.08A3.81,3.81,0,0,0,184.27,46.63Z" id="el_8uixPOt3gTe"/><path d="M188.07,52.59a1.6,1.6,0,0,0-.09,1.7,1.93,1.93,0,0,0,.53.51,2.67,2.67,0,0,0,1.78.55,1.49,1.49,0,0,0,1.34-1.16,1.94,1.94,0,0,0,0-.66,5.31,5.31,0,0,0-.84-2C190.11,50.64,188.5,51.94,188.07,52.59Z" id="el_JyQXpQD0N-K"/><path d="M177,63.18a1.74,1.74,0,0,0,1.52.83,0.34,0.34,0,0,0,.26-0.06,0.32,0.32,0,0,0,.07-0.24,1.41,1.41,0,0,0-1-1.31,0.85,0.85,0,0,0-.73.1A0.69,0.69,0,0,0,177,63.18Z" id="el_TydcJ009xAC"/></g><g id="el_Iu4wHr4gsYO" data-name="crumb_1"><path d="M163.44,45.06a1.6,1.6,0,0,0,1.36,1,1.93,1.93,0,0,0,.72-0.16A2.67,2.67,0,0,0,167,44.76a1.49,1.49,0,0,0-.22-1.76,1.94,1.94,0,0,0-.57-0.33,5.31,5.31,0,0,0-2.1-.4C163,42.28,163.14,44.35,163.44,45.06Z" id="el_eKmim50s7bw"/><path d="M179.73,51.76a2.25,2.25,0,0,0-.25,1.21,3.17,3.17,0,0,0,.33.72,0.47,0.47,0,0,0,.22.11,3.39,3.39,0,0,0,1.06.19,1.15,1.15,0,0,0,.93-0.46,1.35,1.35,0,0,0,0-1.26,1.76,1.76,0,0,0-.91-1A1.21,1.21,0,0,0,179.73,51.76Z" id="el_HRzYipTn4jf"/></g></g><g id="el_UZq4jf_Q87i"><g id="el_jlB-Zqt2AbD"><g id="el_kLkJtoGo24D"><g id="el_kI_6qBGSa-x"><g id="el_1D9nWNgqTnv"><path d="M201.53,97.21c0,6.75-3.08,14.56-5.9,20.22,0,0-29,46.58-37.66,46.58s-37.66-46.58-37.66-46.58c-2.82-5.66-5.9-13.47-5.9-20.22,0-23.26,20.31-43.57,43.56-43.57S201.53,73.94,201.53,97.21Zm-25-1.56A18.56,18.56,0,1,0,158,114.21,18.56,18.56,0,0,0,176.54,95.64Z" id="el_1E_v2vOJE2b"/></g></g></g></g><g id="el_hH3MUCjSBQ2"><path d="M206.81,88.17a1.7,1.7,0,0,0,.54-0.39,1,1,0,0,0,0-1.23,1.51,1.51,0,0,0-1.68-.69,2.26,2.26,0,0,0-.89.74,1.25,1.25,0,0,0-.38,1.46,1,1,0,0,0,.47.29A3.81,3.81,0,0,0,206.81,88.17Z" id="el_EaaIk24pxh4"/><path d="M197.56,81.75a1.74,1.74,0,0,0-1.06,1.37,0.34,0.34,0,0,0,0,.27,0.32,0.32,0,0,0,.23.11,1.41,1.41,0,0,0,1.45-.8,0.85,0.85,0,0,0,0-.73A0.69,0.69,0,0,0,197.56,81.75Z" id="el_Bw9Q__wfAEC"/></g><g id="el_DC2A1yFHcLa" data-name="crumb_3"><path d="M198.38,70.75a1.7,1.7,0,0,0-.63.23,1,1,0,0,0-.31,1.19,1.51,1.51,0,0,0,1.43,1.12,2.26,2.26,0,0,0,1.06-.47,1.25,1.25,0,0,0,.76-1.3,1,1,0,0,0-.37-0.41A3.81,3.81,0,0,0,198.38,70.75Z" id="el_ylc0ynaDU8G"/><path d="M191.6,69.84a2.25,2.25,0,0,0-1.15.47A3.17,3.17,0,0,0,190,71a0.47,0.47,0,0,0,0,.24,3.39,3.39,0,0,0,.43,1,1.15,1.15,0,0,0,.9.51,1.35,1.35,0,0,0,1-.71,1.76,1.76,0,0,0,.3-1.3A1.21,1.21,0,0,0,191.6,69.84Z" id="el_zZvQmTQ0R5Z"/></g><g id="el_0qVL9H0K8Xd" data-name="crumb_2"><path d="M184.27,46.63a1.7,1.7,0,0,0-.16.65,1,1,0,0,0,.82.92,1.51,1.51,0,0,0,1.73-.56,2.26,2.26,0,0,0,.2-1.14,1.25,1.25,0,0,0-.66-1.36,1,1,0,0,0-.54.08A3.81,3.81,0,0,0,184.27,46.63Z" id="el_yCUqgoBdJu7"/><path d="M188.07,52.59a1.6,1.6,0,0,0-.09,1.7,1.93,1.93,0,0,0,.53.51,2.67,2.67,0,0,0,1.78.55,1.49,1.49,0,0,0,1.34-1.16,1.94,1.94,0,0,0,0-.66,5.31,5.31,0,0,0-.84-2C190.11,50.64,188.5,51.94,188.07,52.59Z" id="el_IocU9DuqfK3"/><path d="M177,63.18a1.74,1.74,0,0,0,1.52.83,0.34,0.34,0,0,0,.26-0.06,0.32,0.32,0,0,0,.07-0.24,1.41,1.41,0,0,0-1-1.31,0.85,0.85,0,0,0-.73.1A0.69,0.69,0,0,0,177,63.18Z" id="el_s8JmqaiRnJB"/></g><g id="el_xBiqcuGDEpV" data-name="crumb_1"><path d="M163.44,45.06a1.6,1.6,0,0,0,1.36,1,1.93,1.93,0,0,0,.72-0.16A2.67,2.67,0,0,0,167,44.76a1.49,1.49,0,0,0-.22-1.76,1.94,1.94,0,0,0-.57-0.33,5.31,5.31,0,0,0-2.1-.4C163,42.28,163.14,44.35,163.44,45.06Z" id="el_AgI0Ec4oFsu"/><path d="M179.73,51.76a2.25,2.25,0,0,0-.25,1.21,3.17,3.17,0,0,0,.33.72,0.47,0.47,0,0,0,.22.11,3.39,3.39,0,0,0,1.06.19,1.15,1.15,0,0,0,.93-0.46,1.35,1.35,0,0,0,0-1.26,1.76,1.76,0,0,0-.91-1A1.21,1.21,0,0,0,179.73,51.76Z" id="el_AzX5O8PV1Rd"/></g></g><script>(function(){var a=document.querySelector('#el_pJsxIMuAu'),b=a.querySelectorAll('style'),c=function(d){b.forEach(function(f){var g=f.textContent;g&amp;&amp;(f.textContent=g.replace(/transform-box:[^;\r\n]*/gi,'transform-box: '+d))})};c('initial'),window.requestAnimationFrame(function(){return c('fill-box')})})();</script></svg>